<?xml version="1.0" encoding="utf-8"?>
<!-- Generator: Adobe Illustrator 19.1.0, SVG Export Plug-In . SVG Version: 6.00 Build 0)  -->
<svg version="1.1" id="Layer_1" xmlns="http://www.w3.org/2000/svg" xmlns:xlink="http://www.w3.org/1999/xlink" x="0px" y="0px"
	 width="100px" height="90px" viewBox="0 0 100 90" enable-background="new 0 0 100 90" xml:space="preserve">
<g>
	<defs>
		<path id="SVGID_1_" d="M95.7,31.5L51.5,81.3c-0.8,0.9-2.2,0.9-3,0L4.3,31.5c-0.7-0.8-0.7-2,0.1-2.8l13.3-12.4
			c0.2-0.2,0.4-0.3,0.7-0.4l13.3-5.7c0.2-0.1,0.4-0.1,0.7-0.1h35.3c0.2,0,0.5,0,0.7,0.1l13.3,5.7c0.3,0.1,0.5,0.2,0.7,0.4l13.3,12.4
			C96.4,29.4,96.4,30.6,95.7,31.5z"/>
	</defs>
	<clipPath id="SVGID_2_">
		<use xlink:href="#SVGID_1_"  overflow="visible"/>
	</clipPath>
	<g clip-path="url(#SVGID_2_)">
		<polygon fill="#0BB8FC" points="97,30 50,83 3,30 18,16 32,10 68,10 82,16 		"/>
		<path d="M18,16"/>
		<polygon fill="#1E94F7" points="28,42 50,83 50,42 		"/>
		<polygon fill="#29D5FB" points="32,23 28,42 50,83 3,30 18,16 		"/>
		<polygon fill="#24C5F9" points="18,16 14.5,35.5 32,23 		"/>
		<polygon fill="#28CDFB" points="32,23 50,42 50,23 		"/>
		<path d="M82,16"/>
		<polygon opacity="0.1" fill="#FFFFFF" points="72,42 50,83 50,42 		"/>
		<polygon fill="#61E7FC" points="68,10 50,10 32,10 18,16 32,23 50,23 68,23 82,16 		"/>
		<polygon fill="#21AFF9" points="82,16 85.5,35.5 68,23 		"/>
		<polygon fill="#23BDF9" points="68,23 50,42 50,23 		"/>
		<polygon fill="#1876F4" points="50,42 50,83 72,42 		"/>
		<polygon fill="#1FAEF9" points="3,30 28,42 50,83 		"/>
		<path opacity="0.8" fill="#FFFFFF" d="M40.9,21.9c-4.3,0-7.8-3.5-7.8-7.8c0-0.6-0.5-1.1-1.1-1.1c-0.6,0-1.1,0.5-1.1,1.1
			c0,4.3-3.5,7.8-7.8,7.8c-0.6,0-1.1,0.5-1.1,1.1s0.5,1.1,1.1,1.1c4.3,0,7.8,3.5,7.8,7.8c0,0.6,0.5,1.1,1.1,1.1
			c0.6,0,1.1-0.5,1.1-1.1c0-4.3,3.5-7.8,7.8-7.8c0.6,0,1.1-0.5,1.1-1.1S41.5,21.9,40.9,21.9z"/>
		<polygon fill="#1FA1F8" points="50,42 68,23 72,42 		"/>
		<polygon fill="#177DF5" points="68,23 72,42 85.5,35.5 		"/>
		<polygon fill="#177DF5" points="82,16 85.5,35.5 97,30 		"/>
		<polygon fill="#115DF4" points="72,42 97,30 50,83 		"/>
	</g>
</g>
</svg>
