<?xml version="1.0" encoding="UTF-8" standalone="no"?>
<svg width="116px" height="109px" viewBox="0 0 116 109" version="1.1" xmlns="http://www.w3.org/2000/svg" xmlns:xlink="http://www.w3.org/1999/xlink" xmlns:sketch="http://www.bohemiancoding.com/sketch/ns">
    <!-- Generator: Sketch 3.4.1 (15681) - http://www.bohemiancoding.com/sketch -->
    <title>flaticons-logo-brand</title>
    <desc>Created with Sketch.</desc>
    <defs>
        <path id="path-1" d="M92.7,21.5 L48.5,71.3 C47.7,72.2 46.3,72.2 45.5,71.3 L1.3,21.5 C0.6,20.7 0.6,19.5 1.4,18.7 L14.7,6.3 C14.9,6.1 15.1,6 15.4,5.9 L28.7,0.2 C28.9,0.1 29.1,0.1 29.4,0.1 L64.7,0.1 C64.9,0.1 65.2,0.1 65.4,0.2 L78.7,5.9 C79,6 79.2,6.1 79.4,6.3 L92.7,18.7 C93.4,19.4 93.4,20.6 92.7,21.5 L92.7,21.5 Z"></path>
    </defs>
    <g id="Page-1" stroke="none" stroke-width="1" fill="none" fill-rule="evenodd" sketch:type="MSPage">
        <g id="flaticons-logo-brand" sketch:type="MSLayerGroup">
            <g id="Group">
                <path d="M9.9,96 L0.9,96 C0.3,96 3.33066907e-16,96.4 3.33066907e-16,97 L3.33066907e-16,108 C3.33066907e-16,108.6 0.4,109 0.9,109 L1.9,109 C2.5,109 2.9,108.6 2.9,108 L2.9,105 L7.9,105 C8.5,105 8.9,104.6 8.9,104 L8.9,103 C8.9,102.4 8.4,102 7.9,102 L2.9,102 L2.9,99 L9.9,99 C10.5,99 10.9,98.6 10.9,98 L10.9,97 C10.9,96.4 10.4,96 9.9,96 L9.9,96 Z M22.9,106 L16.9,106 L16.9,97 C16.9,96.4 16.4,96 15.9,96 L14.9,96 C14.3,96 13.9,96.4 13.9,97 L13.9,108 C13.9,108.6 14.3,109 14.9,109 L22.9,109 C23.5,109 23.9,108.6 23.9,108 L23.9,107 C23.9,106.4 23.4,106 22.9,106 L22.9,106 Z M36.9,96 L27.9,96 C27.3,96 26.9,96.4 26.9,97 L26.9,108 C26.9,108.6 27.3,109 27.9,109 L28.9,109 C29.5,109 29.9,108.6 29.9,108 L29.9,105 L34.9,105 L34.9,108 C34.9,108.6 35.3,109 35.9,109 L36.9,109 C37.5,109 37.9,108.6 37.9,108 L37.9,97 C37.9,96.4 37.4,96 36.9,96 L36.9,96 Z M34.9,102 L29.9,102 L29.9,99 L34.9,99 L34.9,102 L34.9,102 Z M50.9,96 L41.9,96 C41.3,96 40.9,96.4 40.9,97 L40.9,98 C40.9,98.6 41.3,99 41.9,99 L44.9,99 L44.9,108 C44.9,108.6 45.3,109 45.9,109 L46.9,109 C47.5,109 47.9,108.6 47.9,108 L47.9,99 L50.9,99 C51.5,99 51.9,98.6 51.9,98 L51.9,97 C51.9,96.4 51.4,96 50.9,96 L50.9,96 Z M56.9,96 L55.9,96 C55.3,96 54.9,96.4 54.9,97 L54.9,108 C54.9,108.6 55.3,109 55.9,109 L56.9,109 C57.5,109 57.9,108.6 57.9,108 L57.9,97 C57.9,96.4 57.5,96 56.9,96 L56.9,96 Z M70.9,96 L62.9,96 C62.3,96 61.9,96.4 61.9,97 L61.9,108 C61.9,108.6 62.3,109 62.9,109 L70.9,109 C71.5,109 71.9,108.6 71.9,108 L71.9,107 C71.9,106.4 71.4,106 70.9,106 L64.9,106 L64.9,99 L70.9,99 C71.5,99 71.9,98.6 71.9,98 L71.9,97 C71.9,96.4 71.4,96 70.9,96 L70.9,96 Z M84.9,96 L75.9,96 C75.3,96 74.9,96.4 74.9,97 L74.9,108 C74.9,108.6 75.3,109 75.9,109 L84.9,109 C85.5,109 85.9,108.6 85.9,108 L85.9,97 C85.9,96.4 85.5,96 84.9,96 L84.9,96 Z M82.9,106 L77.9,106 L77.9,99 L82.9,99 L82.9,106 L82.9,106 Z M99.9,96 L90.9,96 C90.3,96 89.9,96.4 89.9,97 L89.9,108 C89.9,108.6 90.3,109 90.9,109 L91.9,109 C92.5,109 92.9,108.6 92.9,108 L92.9,99 L97.9,99 L97.9,108 C97.9,108.6 98.3,109 98.9,109 L99.9,109 C100.5,109 100.9,108.6 100.9,108 L100.9,97 C100.9,96.4 100.4,96 99.9,96 L99.9,96 Z M114.9,96 L105.9,96 C105.3,96 104.9,96.4 104.9,97 L104.9,103 C104.9,103.6 105.3,104 105.9,104 L112.9,104 L112.9,106 L105.9,106 C105.3,106 104.9,106.4 104.9,107 L104.9,108 C104.9,108.6 105.3,109 105.9,109 L114.9,109 C115.5,109 115.9,108.6 115.9,108 L115.9,102 C115.9,101.4 115.4,101 114.9,101 L107.9,101 L107.9,99 L114.9,99 C115.5,99 115.9,98.6 115.9,98 L115.9,97 C115.9,96.4 115.4,96 114.9,96 L114.9,96 Z" id="Shape" fill="#FFFFFF" sketch:type="MSShapeGroup"></path>
                <g transform="translate(11.000000, 0.000000)">
                    <g id="b" sketch:type="MSShapeGroup">
                        <path d="M92.7,21.5 L48.5,71.3 C47.7,72.2 46.3,72.2 45.5,71.3 L1.3,21.5 C0.6,20.7 0.6,19.5 1.4,18.7 L14.7,6.3 C14.9,6.1 15.1,6 15.4,5.9 L28.7,0.2 C28.9,0.1 29.1,0.1 29.4,0.1 L64.7,0.1 C64.9,0.1 65.2,0.1 65.4,0.2 L78.7,5.9 C79,6 79.2,6.1 79.4,6.3 L92.7,18.7 C93.4,19.4 93.4,20.6 92.7,21.5 L92.7,21.5 Z" id="a"></path>
                    </g>
                    <g id="Clipped">
                        <mask id="mask-2" sketch:name="a" fill="white">
                            <use xlink:href="#path-1"></use>
                        </mask>
                        <g id="a"></g>
                        <g id="Group" mask="url(#mask-2)" sketch:type="MSShapeGroup">
                            <path d="M94,20 L47,73 L0,20 L15,6 L29,0 L65,0 L79,6 L94,20 L94,20 Z" id="Shape" fill="#0BB8FC"></path>
                            <path d="M25,32 L47,73 L47,32 L25,32 L25,32 Z" id="Shape" fill="#1E94F7"></path>
                            <path d="M29,13 L25,32 L47,73 L0,20 L15,6 L29,13 L29,13 Z" id="Shape" fill="#29D5FB"></path>
                            <path d="M15,6 L11.5,25.5 L29,13 L15,6 L15,6 Z" id="Shape" fill="#24C5F9"></path>
                            <path d="M29,13 L47,32 L47,13 L29,13 L29,13 Z" id="Shape" fill="#28CDFB"></path>
                            <path d="M69,32 L47,73 L47,32 L69,32 L69,32 Z" id="Shape" opacity="0.1" fill="#FFFFFF"></path>
                            <path d="M65,0 L29,0 L15,6 L29,13 L65,13 L79,6 L65,0 L65,0 Z" id="Shape" fill="#61E7FC"></path>
                            <path d="M79,6 L82.5,25.5 L65,13 L79,6 L79,6 Z" id="Shape" fill="#21AFF9"></path>
                            <path d="M65,13 L47,32 L47,13 L65,13 L65,13 Z" id="Shape" fill="#23BDF9"></path>
                            <path d="M47,32 L47,73 L69,32 L47,32 L47,32 Z" id="Shape" fill="#1876F4"></path>
                            <path d="M0,20 L25,32 L47,73 L0,20 L0,20 Z" id="Shape" fill="#1FAEF9"></path>
                            <path d="M37.9,11.9 C33.6,11.9 30.1,8.4 30.1,4.1 C30.1,3.5 29.6,3 29,3 C28.4,3 27.9,3.5 27.9,4.1 C27.9,8.4 24.4,11.9 20.1,11.9 C19.5,11.9 19,12.4 19,13 C19,13.6 19.5,14.1 20.1,14.1 C24.4,14.1 27.9,17.6 27.9,21.9 C27.9,22.5 28.4,23 29,23 C29.6,23 30.1,22.5 30.1,21.9 C30.1,17.6 33.6,14.1 37.9,14.1 C38.5,14.1 39,13.6 39,13 C39,12.4 38.5,11.9 37.9,11.9 L37.9,11.9 Z" id="Shape" opacity="0.8" fill="#FFFFFF"></path>
                            <path d="M47,32 L65,13 L69,32 L47,32 L47,32 Z" id="Shape" fill="#1FA1F8"></path>
                            <path d="M65,13 L69,32 L82.5,25.5 L65,13 L65,13 Z M79,6 L82.5,25.5 L94,20 L79,6 L79,6 Z" id="Shape" fill="#177DF5"></path>
                            <path d="M69,32 L94,20 L47,73 L69,32 L69,32 Z" id="Shape" fill="#115DF4"></path>
                        </g>
                    </g>
                </g>
            </g>
        </g>
    </g>
</svg>